<?xml version="1.0" encoding="UTF-8"?><svg id="a" xmlns="http://www.w3.org/2000/svg" viewBox="0 0 24 24"><defs><style>.b{fill:#1e2939;}</style></defs><path class="b" d="m8.83,10.84c-.09-.28-.17-.56-.27-.84s-.17-.55-.25-.82c-.07-.26-.14-.49-.2-.71h-.02c-.08.39-.18.79-.31,1.18-.14.44-.27.9-.42,1.36-.12.47-.27.9-.4,1.28h2.33c-.05-.19-.13-.42-.21-.66-.08-.25-.16-.51-.25-.79Z"/><path class="b" d="m16.66,10.59c-.5-.03-.98.24-1.22.7-.11.21-.17.43-.2.66h1.93c.24,0,.41,0,.52,0,.07,0,.15-.03.21-.07v-.09c0-.12-.02-.23-.05-.34-.16-.51-.65-.86-1.19-.84Z"/><path class="b" d="m19.1,1.27H4.9c-2.15,0-3.9,1.74-3.9,3.9v13.66c0,2.15,1.74,3.9,3.9,3.9h14.21c2.15,0,3.9-1.74,3.9-3.9V5.17c0-2.15-1.74-3.9-3.9-3.9Zm-6.45,15.09h-1.92c-.06,0-.13-.04-.15-.1l-.75-2.2v.05h-3.41l-.7,2.16c-.02.08-.09.14-.17.13h-1.72c-.1,0-.13-.05-.1-.16l2.95-8.46c.03-.09.05-.17.09-.28.04-.19.05-.39.05-.6,0-.05.03-.09.07-.1h2.37c.06,0,.11.03.12.07l3.35,9.35c.03.1,0,.15-.09.15Zm7.16-3.59c-.02.17-.03.3-.04.39,0,.06-.06.12-.13.12-.05,0-.16,0-.3.02-.15.02-.32.03-.53.03s-.43-.04-.67-.04h-2.91c.04.28.13.57.28.82.16.25.39.44.67.55.37.16.77.24,1.17.23.32,0,.64-.04.95-.1.28-.04.56-.11.82-.21.05-.04.07-.02.07.07v1.4s0,.07-.02.11c-.02.03-.04.05-.06.06-.29.13-.6.22-.92.27-.43.08-.86.12-1.3.11-.7,0-1.28-.11-1.76-.32-.45-.19-.84-.49-1.15-.87-.29-.36-.5-.76-.63-1.2-.13-.43-.19-.88-.19-1.34,0-.49.07-.98.23-1.46.15-.46.38-.88.69-1.26.3-.37.68-.66,1.11-.87.43-.21.94-.28,1.53-.28.49,0,.97.08,1.42.28.38.17.71.41.96.73.24.31.43.66.55,1.05.12.37.17.74.17,1.12,0,.22,0,.41-.02.59Z"/></svg>