<?xml version="1.0" encoding="UTF-8"?><svg id="a" xmlns="http://www.w3.org/2000/svg" viewBox="0 0 24 24"><defs><style>.b{fill:#1e2939;}</style></defs><polygon class="b" points="8.93 12.94 10 12.94 11.07 12.94 10 9.62 8.93 12.94"/><path class="b" d="m19.1,1.27H4.9c-2.15,0-3.9,1.74-3.9,3.9v13.66c0,2.15,1.74,3.9,3.9,3.9h14.21c2.15,0,3.9-1.74,3.9-3.9V5.17c0-2.15-1.74-3.9-3.9-3.9Zm-6.72,15.72l-.49-1.52h-3.78l-.49,1.52h-2.95l3.78-10.17h3.29l3.67,10.17h-3.04Zm6.14,0h-2.73v-8.01h2.73v8.01Zm-1.36-8.19c-.86,0-1.46-.52-1.45-1.27,0-.75.6-1.28,1.45-1.27.86,0,1.46.52,1.45,1.27,0,.75-.6,1.28-1.45,1.27Z"/></svg>