<?xml version="1.0" encoding="UTF-8"?><svg id="a" xmlns="http://www.w3.org/2000/svg" viewBox="0 0 24 24"><defs><style>.b{fill:#1e2939;}</style></defs><path class="b" d="m19.1,1.27H4.9c-2.15,0-3.9,1.74-3.9,3.9v13.66c0,2.15,1.74,3.9,3.9,3.9h14.21c2.15,0,3.9-1.74,3.9-3.9V5.17c0-2.15-1.74-3.9-3.9-3.9Zm-6.37,15.13h-1.91c-.06,0-.13-.03-.15-.1l-.76-2.18v.03h-3.4l-.7,2.15c-.02.09-.09.14-.17.13h-1.75c-.1,0-.13-.05-.1-.16l2.96-8.46c.03-.09.05-.16.09-.28.03-.19.05-.39.05-.59,0-.04.03-.09.08-.1h2.39c.08,0,.11.03.12.08l3.34,9.35c.03.1,0,.15-.09.15Zm7.53-.1c0,.09-.03.13-.12.13l-1.72.02c-.08,0-.14-.03-.15-.11v-4.14c0-.27-.06-.55-.17-.8-.09-.18-.21-.35-.38-.45-.19-.12-.4-.17-.63-.16-.24,0-.48.03-.7.13-.21.09-.39.21-.55.35v5.06c0,.09-.03.13-.12.13h-1.74c-.06,0-.12-.03-.13-.1,0-.03,0-.04,0-.05h0v-5.45c0-.16,0-.36,0-.56,0-.21,0-.4-.02-.58,0-.18-.02-.36-.03-.46,0-.03,0-.06.02-.09.03-.02.05-.03.09-.03h1.48c.05,0,.1,0,.15.03.03.02.06.05.08.1.02.05.04.13.06.21.03.1.04.21.05.3.28-.25.62-.44.97-.57.36-.12.73-.18,1.11-.18.29,0,.58.04.86.14.65.21,1.17.71,1.39,1.36.15.38.21.87.21,1.47v4.33Z"/><path class="b" d="m8.92,10.87c-.09-.28-.17-.56-.27-.84-.09-.28-.17-.55-.25-.82-.08-.26-.14-.5-.21-.71h-.02c-.09.39-.18.79-.31,1.18-.14.44-.27.9-.42,1.36-.12.46-.26.89-.39,1.28h2.33c-.05-.19-.13-.42-.21-.66-.09-.25-.16-.51-.25-.79Z"/></svg>