<?xml version="1.0" encoding="UTF-8"?><svg id="a" xmlns="http://www.w3.org/2000/svg" viewBox="0 0 24 24"><defs><style>.b{fill:#1e2939;}</style></defs><path class="b" d="m23,18.05c-.8.2-1.3,0-1.74-.66l-3.16-4.37-.46-.6-3.69,4.99c-.42.6-.86.86-1.65.65l4.72-6.34-4.4-5.73c.76-.15,1.28-.07,1.74.61l3.28,4.42,3.3-4.4c.42-.6.88-.83,1.64-.61l-1.7,2.26-2.31,3.01c-.27.34-.24.58.02.91l4.41,5.86ZM1.01,11.61l.39-1.9c1.05-3.76,5.36-5.32,8.34-3,1.74,1.37,2.17,3.3,2.08,5.47H2.02c-.15,3.9,2.66,6.25,6.24,5.05,1.25-.42,1.99-1.4,2.36-2.63.19-.62.5-.71,1.08-.54-.3,1.54-.96,2.82-2.37,3.63-2.11,1.2-5.11.81-6.69-.86-.94-.97-1.33-2.2-1.51-3.51-.03-.22-.08-.42-.12-.63,0-.36,0-.71,0-1.07h0Zm1.03-.26h8.85c-.06-2.82-1.81-4.82-4.21-4.84-2.63-.02-4.52,1.93-4.64,4.84Z"/></svg>