<?xml version="1.0" encoding="UTF-8"?><svg id="a" xmlns="http://www.w3.org/2000/svg" viewBox="0 0 24 24"><defs><style>.b{fill:#1e2939;}</style></defs><path class="b" d="m10.88,3.64c-.01,1.31.3,4.24.41,5.26l-7.84,3.51c-.51-.88-.9-2.11-1.13-3.1l-.05.02c-.19.08-.37.05-.45-.08v-.02s-.76-1.38-.76-1.38c-.05-.1-.05-.23.02-.36.07-.13.19-.24.33-.3l9.01-3.86c.13-.06.27-.06.37,0,.1.06.12.12.12.3h0Zm.62,6.42c.48,1.81.62,2.21.76,2.58l-6.66,3.39c-.63-.81-1.18-1.68-1.66-2.59l7.55-3.38h0Zm11.4,8.05h0c.26.37-.04.6-.14.64l-.87.34c.03.11.03.29-.2.38l-.67.26c-.21.08-.36-.05-.38-.18l-.02-.11c-4.06,1.64-7.28,1.54-9.8.59-1.82-.68-3.28-1.82-4.44-3.1l6.37-3.24c.66,1.31,1.45,2.25,2.3,2.91,1.91,1.5,4.05,1.57,5.31,1.43l-.04-.21c-.01-.07,0-.12.08-.15l.67-.26c.11-.04.24-.01.31.08l.69-.26c.11-.04.24-.01.31.08l.53.82h0Z"/></svg>