<?xml version="1.0" encoding="UTF-8"?><svg id="a" xmlns="http://www.w3.org/2000/svg" viewBox="0 0 24 24"><defs><style>.b{fill:#1e2939;}</style></defs><path class="b" d="m8.39,19.08l4.97-14.19s.03-.04.06-.04h2.14s.06.03.06.06c0,0,0,.01,0,.02l-4.95,14.19s-.03.04-.05.04h-2.16s-.06-.03-.06-.06c0,0,0-.01,0-.02Z"/><path class="b" d="m3.44,12.11l4.51,1.74s.04.04.03.07l-.55,1.69s-.04.04-.07.03c0,0,0,0,0,0l-6.33-2.64s-.03-.03-.03-.05v-1.77s.01-.04.03-.05l6.33-2.64s.06,0,.07.03c0,0,0,0,0,0l.55,1.69s0,.06-.03.07l-4.51,1.74s-.04.04-.03.07c0,.01.02.03.03.03Z"/><path class="b" d="m16.01,10.2l.55-1.68s.04-.05.07-.04c0,0,0,0,0,0l6.33,2.64s.04.03.04.05v1.76s-.02.04-.04.05l-6.33,2.64s-.06,0-.07-.03c0,0,0,0,0,0l-.55-1.68s0-.06.03-.07l4.5-1.73s.04-.04.03-.07c0-.02-.02-.03-.03-.03l-4.5-1.73s-.04-.04-.03-.07Z"/></svg>