<?xml version="1.0" encoding="UTF-8"?><svg id="a" xmlns="http://www.w3.org/2000/svg" viewBox="0 0 24 24"><defs><style>.b{fill:#1e2939;}</style></defs><path class="b" d="m11.14,8.52c-.68-.97-.94-1.68-1-2.2-.05-.49.07-.87.3-1.24.25-.4.64-.78,1.12-1.22.45-.41,1.02-.9,1.47-1.46l-1.4-1.13c-.37.47-.83.85-1.27,1.25-.48.44-1.03.95-1.43,1.59-.42.66-.67,1.45-.57,2.4.1.92.53,1.92,1.31,3.03l1.47-1.03Zm1.12-2.72c.26-.61.78-1.23,1.6-1.94l1.17,1.37c-.75.64-1.02,1.04-1.11,1.26-.09.22-.03.45.03.67.08.27.2.71.19,1.19-.01.63-.23,1.31-.75,2.08l-1.5-1c.38-.57.44-.91.45-1.12,0-.27-.06-.41-.18-.86-.11-.43-.19-.99.09-1.66Zm-5.33,4.14c.42-.28.94-.43,1.43-.54l-.42-1.75c-.73.18-1.39.41-1.9.73-.46.28-1.04.79-1.04,1.57,0,.65.44,1.17.96,1.52-.04.16-.06.34-.06.51,0,.88.38,1.62,1.03,2.18-.1.27-.14.57-.13.87-.7.14-1.38.34-1.95.6-.39.18-.77.41-1.07.7-.3.3-.58.72-.58,1.27,0,.38.17.69.34.91.17.22.39.4.62.56.46.32,1.06.6,1.76.84,1.4.48,3.3.84,5.38.84,2.99,0,5.09-.35,6.46-.7.69-.18,1.19-.36,1.53-.5.19-.08.38-.16.55-.27,0,0-.92-1.54-.92-1.54-.51.26-1.07.43-1.62.58-1.21.32-3.16.65-6.01.65-1.89,0-3.59-.32-4.79-.74-.48-.16-.98-.36-1.38-.66.1-.08.26-.18.48-.28.5-.23,1.19-.42,1.92-.53.21.22.45.41.73.58.87.51,2.06.74,3.49.74,1.18,0,2.03-.12,2.61-.25.32-.07.64-.15.94-.3,0,0-.79-1.61-.79-1.61-.17.06-.35.11-.53.15-.44.1-1.16.2-2.22.2-1.27,0-2.1-.22-2.58-.5-.38-.22-.53-.47-.56-.74.78.23,1.7.34,2.75.34,1.32,0,2.26-.13,2.9-.27.35-.07.7-.16,1.02-.31.02,0-.77-1.62-.77-1.62-.05.02-.25.1-.63.18-.5.11-1.32.23-2.52.23-1.44,0-2.4-.24-2.97-.56-.42-.24-.61-.51-.66-.8,1.11.29,2.52.46,4.03.46,1.63,0,3.15-.2,4.3-.54l-.51-1.72c-.95.28-2.28.46-3.79.46s-2.92-.19-3.87-.49c-.45-.14-.76-.28-.95-.41Zm10.29.67c1.09-.1,1.49.17,1.62.31.13.14.18.37.12.6-.1.42-.4.82-.87,1.19-.48.37-1.08.67-1.68.87l.57,1.71c.74-.25,1.54-.63,2.22-1.16.67-.53,1.28-1.25,1.51-2.18.17-.66.1-1.56-.55-2.26-.66-.7-1.72-1-3.1-.87l.16,1.79Z"/></svg>