<?xml version="1.0" encoding="UTF-8"?><svg id="a" xmlns="http://www.w3.org/2000/svg" viewBox="0 0 24 24"><defs><style>.b{fill:#1e2939;}</style></defs><path class="b" d="m9.55,11.69c-.04.07-3.96.06-4.02,1.13-.07,1.22,4.88,1.54,9.08.59l1.36-.95c-.78.21-7.48.61-8.1.24-.59-.35,1.68-1.01,1.68-1.01Z"/><path class="b" d="m8.57,14.06c-.02.07-1.55.2-1.55,1.08s5.09,1.65,8.11.23l-1.16-.76c-.27.35-4.61.68-5.37.14-.44-.31-.04-.69-.04-.69Z"/><path class="b" d="m9.18,16.24s-1.39.2-1.39.92,1.46.97,3.44.97,3.66-.87,3.66-.87l-1.27-.86s-1.01.54-2.43.54-2.38-.08-2.01-.7Z"/><path class="b" d="m7.79,17.77l-.63-.42s-3.01-.25-3.01,1.17,3.78,2.03,7.61,2.03c4.54,0,8.29-1.71,6-3.09,0,0,.89,2.11-6.01,2.11s-5.64-1.45-5.64-1.45c0,0,.28-.38,1.69-.35Z"/><path class="b" d="m6.74,20.94s9.05,2.17,13.14-1.63c.07,1.72-5.67,4.44-13.14,1.63Z"/><path class="b" d="m16.31,12.2s1.61-.14,1.61,1.09-1.18,2.22-2.08,2.91c0,0,3.24-.33,3.24-2.95,0-1.96-2.22-1.56-2.76-1.04Z"/><path class="b" d="m11.78,12.08s-2.79-1.87-3.07-3.99,5.33-3.92,4.51-6.91c0,0,1.92,2.24-1.17,5.07-2.72,2.5-1.65,3.23-.28,5.84Z"/><path class="b" d="m12.59,12.45s.69-.69.63-1.35-1.23-1.64-1.26-2.99,1.57-3.09,4.63-3.24c0,0-3.15,1.95-3.18,3.06s.91.98.98,2.46-1.8,2.08-1.8,2.08Z"/></svg>