<?xml version="1.0" encoding="UTF-8"?><svg id="a" xmlns="http://www.w3.org/2000/svg" viewBox="0 0 24 24"><defs><style>.b{fill:#1e2939;}</style></defs><path class="b" d="m21.97,1H2.03c-.57,0-1.03.46-1.03,1.03v19.94c0,.57.46,1.03,1.03,1.03h19.94c.57,0,1.03-.46,1.03-1.03V2.03c0-.57-.46-1.03-1.03-1.03Zm-8.99,17.16c0,2.14-1.26,3.11-3.09,3.11-1.66,0-2.61-.86-3.1-1.89l1.68-1.02c.32.58.62,1.06,1.33,1.06s1.11-.27,1.11-1.3v-7.03h2.07v7.06Zm4.88,3.12c-1.92,0-3.16-.91-3.77-2.11l1.68-.98c.44.72,1.02,1.26,2.04,1.26.86,0,1.4-.43,1.4-1.02,0-.71-.56-.96-1.51-1.37l-.52-.22c-1.49-.64-2.48-1.43-2.48-3.11,0-1.55,1.18-2.73,3.03-2.73,1.31,0,2.26.46,2.94,1.66l-1.61,1.03c-.35-.64-.74-.89-1.33-.89s-.99.38-.99.89c0,.62.38.87,1.27,1.26l.52.22c1.76.75,2.75,1.52,2.75,3.25,0,1.86-1.46,2.88-3.43,2.88Z"/></svg>