<?xml version="1.0" encoding="UTF-8" standalone="no"?>
<svg
   id="a"
   viewBox="0 0 24 24"
   version="1.1"
   sodipodi:docname="ADOBE AFTER EFFECTS ICON.svg"
   inkscape:version="1.4.3 (0d15f75042, 2025-12-25)"
   xmlns:inkscape="http://www.inkscape.org/namespaces/inkscape"
   xmlns:sodipodi="http://sodipodi.sourceforge.net/DTD/sodipodi-0.dtd"
   xmlns="http://www.w3.org/2000/svg"
   xmlns:svg="http://www.w3.org/2000/svg">
  <sodipodi:namedview
     id="namedview3"
     pagecolor="#ffffff"
     bordercolor="#000000"
     borderopacity="0.25"
     inkscape:showpageshadow="2"
     inkscape:pageopacity="0.0"
     inkscape:pagecheckerboard="0"
     inkscape:deskcolor="#d1d1d1"
     inkscape:zoom="19.708333"
     inkscape:cx="12"
     inkscape:cy="12"
     inkscape:window-width="1366"
     inkscape:window-height="699"
     inkscape:window-x="0"
     inkscape:window-y="0"
     inkscape:window-maximized="1"
     inkscape:current-layer="a" />
  <defs
     id="defs1">
    <style
       id="style1">.b{fill:#1e2939;}</style>
  </defs>
  <path
     id="path3"
     style="display:inline"
     class="b"
     d="M 4.9003906 1.2695312 C 2.7503906 1.2695312 1 3.0099219 1 5.1699219 L 1 18.830078 C 1 20.980078 2.7403906 22.730469 4.9003906 22.730469 L 19.109375 22.730469 C 21.259375 22.730469 23.009766 20.990078 23.009766 18.830078 L 23.009766 5.1699219 C 23.009766 3.0199219 21.269375 1.2695314 19.109375 1.2695312 L 19.099609 1.2695312 L 4.9003906 1.2695312 z M 18.203125 5.4003906 C 18.515977 5.4003906 18.815714 5.5264505 19.037109 5.7480469 C 19.258504 5.9696433 19.382362 6.270389 19.382812 6.5839844 C 19.382813 6.7393268 19.352299 6.8916645 19.292969 7.0351562 C 19.233567 7.1786556 19.146798 7.3101586 19.037109 7.4199219 C 18.927495 7.5297226 18.797535 7.6164533 18.654297 7.6757812 C 18.511059 7.7350342 18.358094 7.7658491 18.203125 7.765625 C 15.710623 7.765625 14.742299 9.2858758 13.445312 11.789062 L 12.648438 13.300781 C 11.425201 15.661254 9.9039964 18.599609 5.796875 18.599609 C 5.4842924 18.599161 5.1839192 18.473497 4.9628906 18.251953 C 4.7418621 18.030409 4.6176208 17.729316 4.6171875 17.416016 C 4.6171875 17.260749 4.6477782 17.108231 4.7070312 16.964844 C 4.7662841 16.821456 4.8534037 16.691794 4.9628906 16.582031 C 5.0723775 16.472267 5.200699 16.383619 5.34375 16.324219 C 5.486801 16.264899 5.6420333 16.234375 5.796875 16.234375 C 8.2909461 16.234375 9.257393 14.714199 10.552734 12.210938 L 11.351562 10.699219 C 12.574875 8.3387463 14.097573 5.4003906 18.203125 5.4003906 z " />
</svg>
