<?xml version="1.0" encoding="UTF-8"?><svg id="a" xmlns="http://www.w3.org/2000/svg" viewBox="0 0 24 24"><defs><style>.b{fill:#1e2939;}</style></defs><path class="b" d="m20.36,5.18v1.71c0,1.5-3.74,2.73-8.36,2.73s-8.36-1.23-8.36-2.73v-1.71c0-1.5,3.74-2.73,8.36-2.73s8.36,1.23,8.36,2.73Zm0,3.84v3.84c0,1.5-3.74,2.73-8.36,2.73s-8.36-1.23-8.36-2.73v-3.84c1.8,1.24,5.08,1.81,8.36,1.81s6.56-.58,8.36-1.81Zm0,5.97v3.84c0,1.5-3.74,2.73-8.36,2.73s-8.36-1.23-8.36-2.73v-3.84c1.8,1.24,5.08,1.81,8.36,1.81s6.56-.58,8.36-1.81Z"/></svg>