<?xml version="1.0" encoding="UTF-8"?><svg id="a" xmlns="http://www.w3.org/2000/svg" viewBox="0 0 24 24"><defs><style>.b{stroke-linecap:round;stroke-linejoin:round;}.b,.c{fill:none;stroke:#1e2939;stroke-width:2.1px;}.c{stroke-linejoin:bevel;}</style></defs><path class="c" d="m12.73,21.06c-1.51-1.08-3.79-4.07-4.22-6.33-.51.81-1.58,2.11-2.11,2.11-1.58-.94-.61-4.19,0-6.33-1.68-1.51-2.6-2.59-2.64-4.22C.22,2.66,3.29.73,6.4,3.12h1.06c8.95.53,6.78,8.52,9.5,12.14,2.42.55,3.87,2.38,5.28,3.69-2.2-.21-2.94-.36-3.69,0,.5,1.73,2.24,2.32,3.69,3.17"/><path class="b" d="m8.51,6.29h.01"/></svg>