<?xml version="1.0" encoding="UTF-8"?><svg id="a" xmlns="http://www.w3.org/2000/svg" viewBox="0 0 24 24"><defs><style>.b{fill:#1e2939;}</style></defs><path class="b" d="m18.51,16.25c-.87-.02-1.54.06-2.11.3-.16.07-.42.07-.45.27.09.09.1.23.17.35.14.22.37.52.57.67.22.17.46.35.7.5.43.26.9.41,1.32.67.24.15.48.35.72.52.12.09.2.22.35.27v-.02c-.08-.1-.1-.24-.17-.35l-.32-.32c-.32-.42-.72-.79-1.14-1.09-.34-.24-1.1-.57-1.24-.97l-.02-.02c.24-.03.52-.11.74-.17.37-.1.71-.07,1.09-.17l.52-.15v-.1c-.19-.2-.33-.46-.55-.65-.56-.47-1.16-.95-1.79-1.34-.35-.22-.77-.36-1.14-.55-.12-.06-.34-.09-.42-.2-.19-.25-.3-.56-.45-.84-.31-.6-.62-1.26-.89-1.89-.19-.43-.31-.85-.55-1.24-1.13-1.85-2.34-2.97-4.22-4.07-.4-.23-.88-.33-1.39-.45-.27-.02-.55-.03-.82-.05-.17-.07-.34-.27-.5-.37-.62-.39-2.22-1.25-2.68-.12-.29.71.44,1.4.69,1.76.18.25.42.54.55.82.09.19.1.37.17.57.18.49.34,1.02.57,1.46.12.23.25.47.4.67.09.12.25.18.27.37-.15.21-.16.55-.25.82-.39,1.22-.24,2.74.32,3.65.17.28.58.87,1.14.65.49-.2.38-.82.52-1.37.03-.12.01-.21.07-.3v.02l.45.89c.33.53.92,1.09,1.41,1.46.26.19.46.53.79.65v-.02h-.02c-.06-.1-.17-.14-.25-.22-.19-.19-.41-.43-.57-.65-.45-.61-.85-1.29-1.22-1.99-.17-.33-.33-.7-.47-1.04-.06-.13-.06-.33-.17-.4-.16.25-.4.45-.52.74-.2.47-.22,1.04-.3,1.64-.04.02-.02,0-.05.02-.35-.08-.47-.44-.6-.74-.32-.77-.39-2.02-.1-2.9.07-.23.41-.95.27-1.17-.06-.21-.28-.33-.4-.5-.15-.2-.3-.46-.4-.7-.27-.6-.39-1.28-.67-1.89-.13-.29-.36-.59-.55-.84-.21-.29-.44-.5-.6-.84-.06-.12-.13-.32-.05-.45.03-.09.06-.12.15-.15.14-.11.55.04.69.1.4.17.73.32,1.07.55.16.11.33.31.52.37h.22c.35.08.74.02,1.07.12.58.18,1.09.45,1.56.74,1.43.9,2.6,2.19,3.4,3.72.13.25.18.48.3.74.23.53.52,1.07.74,1.59.23.52.45,1.04.77,1.46.17.23.82.35,1.12.47.21.09.55.18.74.3.38.23.74.5,1.09.74.18.12.72.4.74.62ZM7.42,6.79c-.18,0-.31.02-.45.05v.02h.02c.09.18.24.29.35.45.08.17.17.35.25.52l.02-.02c.15-.11.22-.28.22-.55-.06-.06-.07-.15-.12-.22-.07-.1-.21-.16-.3-.25Z"/></svg>