<?xml version="1.0" encoding="UTF-8"?><svg id="a" xmlns="http://www.w3.org/2000/svg" viewBox="0 0 24 24"><defs><style>.b{fill:#1e2939;}</style></defs><path class="b" d="m12.9,1.24c-.55-.33-1.24-.33-1.79,0L3.27,5.85c-.54.32-.87.9-.87,1.53v9.24c0,.63.33,1.21.87,1.53l2.65,1.56c1.35.79,3.05-.18,3.05-1.74V7.7h-2.02v10.26l-2.53-1.49V7.52l7.58-4.46,7.58,4.46v8.95l-7.58,4.46-1.79-1.05-1.03,1.74,1.92,1.13c.55.33,1.24.33,1.79,0l7.84-4.61c.54-.32.87-.9.87-1.53V7.38c0-.63-.33-1.21-.87-1.53L12.9,1.24Zm1.12,6.21c-1.38,0-2.35.36-2.98.98-.62.62-.75,1.35-.75,1.78,0,.56.16,1.07.49,1.49.32.4.73.66,1.13.82.73.3,1.64.4,2.37.48h.09c.84.1,1.47.18,1.9.36.19.08.28.16.31.2.02.03.06.09.06.26,0,.27-.09.44-.38.6-.35.2-.97.35-1.9.35s-1.57-.17-1.94-.43c-.29-.2-.5-.5-.44-1.16l-2.01-.17c-.11,1.3.36,2.34,1.31,2.99.86.6,1.99.79,3.09.79s2.12-.17,2.9-.62c.86-.49,1.4-1.3,1.4-2.36,0-.56-.16-1.07-.48-1.5-.31-.41-.73-.66-1.13-.83-.74-.31-1.66-.41-2.39-.49h-.07c-.84-.1-1.47-.17-1.91-.35-.2-.08-.28-.15-.31-.19-.02-.02-.06-.08-.06-.25,0-.08.02-.22.15-.35.12-.12.5-.39,1.55-.39s1.58.11,1.92.3c.22.13.45.37.48,1.14l2.02-.08c-.05-1.26-.51-2.23-1.47-2.8-.85-.5-1.93-.59-2.95-.59Z"/></svg>