<?xml version="1.0" encoding="UTF-8"?><svg id="a" xmlns="http://www.w3.org/2000/svg" viewBox="0 0 24 24"><defs><style>.b{fill:#1e2939;}</style></defs><path class="b" d="m11.12,18.71c.59,1.34.88,2.77.88,4.29,0-1.52.28-2.95.85-4.29.59-1.34,1.38-2.5,2.36-3.49s2.15-1.77,3.49-2.34c1.34-.59,2.77-.88,4.29-.88-1.52,0-2.95-.28-4.29-.85-1.3-.56-2.49-1.36-3.49-2.36-1-1.01-1.8-2.19-2.36-3.49-.57-1.34-.85-2.77-.85-4.29,0,1.52-.29,2.95-.88,4.29-.57,1.34-1.35,2.5-2.34,3.49-1.01,1-2.19,1.8-3.49,2.36-1.34.57-2.77.85-4.29.85,1.52,0,2.95.29,4.29.88,1.34.57,2.5,1.35,3.49,2.34.99.99,1.77,2.15,2.34,3.49"/></svg>