<?xml version="1.0" encoding="UTF-8"?><svg id="a" xmlns="http://www.w3.org/2000/svg" viewBox="0 0 24 24"><defs><style>.b{fill:#1e2939;}</style></defs><path class="b" d="m11.96,1c-5.19,0-5.25,2.02-5.25,2.43v2.52h5.35v.76h-7.48c-1.59,0-3.59.97-3.59,5.25,0,3.93,1.56,5.46,3.13,5.46h1.87v-2.63c0-1.1.54-3.13,3.08-3.13h5.31c.78,0,2.98-.34,2.98-2.88V3.93c0-.63-.11-2.93-5.41-2.93Zm-2.95,1.69c.53,0,.96.43.96.96s-.43.96-.96.96-.96-.43-.96-.96.43-.96.96-.96Z"/><path class="b" d="m12.04,23c5.19,0,5.26-2.05,5.26-2.43v-2.52h-5.36v-.76h7.48c1.6,0,3.59-.99,3.59-5.25,0-4.66-2.11-5.46-3.13-5.46h-1.87v2.63c0,1.1-.53,3.13-3.08,3.13h-5.31c-.78,0-2.98.38-2.98,2.88v4.84c0,1.05.64,2.93,5.41,2.93Zm2.95-1.69c-.53,0-.96-.43-.96-.96s.43-.96.96-.96.96.43.96.96-.43.96-.96.96Z"/></svg>