<?xml version="1.0" encoding="UTF-8"?><svg id="a" xmlns="http://www.w3.org/2000/svg" viewBox="0 0 24 24"><defs><style>.b{fill:#1e2939;}</style></defs><path class="b" d="m21.03,2.3c-.31.73-.7,1.42-1.18,2.06C15.64,0,8.7-.12,4.35,4.1-.01,8.31-.13,15.25,4.08,19.6c.15.15.3.3.45.44l.41.36c4.63,3.9,11.54,3.31,15.44-1.31,1.5-1.77,2.39-3.98,2.55-6.29.32-2.76-.52-6.29-1.9-10.5ZM6.12,20.13c-.33.4-.91.46-1.31.13-.4-.33-.46-.91-.13-1.31.32-.4.91-.46,1.31-.14.39.33.45.91.14,1.31Zm14.85-3.28c-2.69,3.6-8.49,2.38-12.18,2.56,0,0-.66.05-1.31.14,0,0,.25-.11.57-.23,2.6-.91,3.83-1.09,5.41-1.9,2.97-1.52,5.93-4.84,6.52-8.28-1.13,3.3-4.57,6.16-7.7,7.31-2.15.79-6.02,1.56-6.02,1.56l-.16-.09c-2.63-1.29-2.72-6.99,2.08-8.83,2.1-.81,4.1-.36,6.38-.91,2.42-.57,5.23-2.38,6.36-4.75,1.27,3.83,2.81,9.76.05,13.42Z"/></svg>