<?xml version="1.0" encoding="UTF-8"?><svg id="a" xmlns="http://www.w3.org/2000/svg" viewBox="0 0 24 24"><defs><style>.b{fill:#1e2939;}</style></defs><path class="b" d="m19.52,4.37c-1.92-2.76-5.73-3.57-8.48-1.83l-4.84,3.1c-1.32.83-2.23,2.18-2.5,3.71-.23,1.28-.04,2.6.58,3.75-.42.63-.7,1.34-.83,2.08-.28,1.57.09,3.18,1,4.47,1.93,2.76,5.73,3.57,8.48,1.83l4.84-3.08c1.32-.83,2.23-2.18,2.5-3.71.23-1.28.04-2.6-.58-3.75.42-.63.7-1.34.83-2.08.3-1.58-.07-3.2-1-4.49Zm-1.37,3.96c-.04.16-.07.3-.12.46l-.09.28-.25-.18c-.58-.42-1.21-.74-1.9-.95l-.18-.05.02-.18c.02-.25-.05-.51-.19-.72-.28-.4-.77-.58-1.25-.46-.11.04-.21.07-.3.12l-4.82,3.08c-.25.16-.4.39-.46.67-.05.28.02.58.18.81.28.4.77.58,1.25.46.11-.04.21-.07.3-.12l1.85-1.18c.3-.19.63-.33.98-.44,1.57-.4,3.2.21,4.12,1.53.56.77.77,1.74.62,2.69-.16.91-.72,1.74-1.51,2.23l-4.84,3.08c-.3.19-.63.33-.98.44-1.57.4-3.2-.21-4.12-1.53-.56-.77-.77-1.74-.62-2.69.04-.16.07-.3.11-.46l.09-.28.25.18c.58.42,1.21.74,1.9.95l.18.05-.02.18c-.02.25.05.51.19.72.28.4.77.6,1.25.47.11-.04.21-.07.3-.12l4.82-3.08c.25-.16.4-.39.46-.67.05-.28-.02-.58-.18-.81-.28-.4-.77-.58-1.25-.46-.11.04-.21.07-.3.12l-1.85,1.18c-.3.19-.63.33-.98.42-1.57.4-3.2-.21-4.12-1.53-.55-.77-.77-1.74-.6-2.69.16-.91.72-1.74,1.51-2.23l4.84-3.08c.3-.19.63-.33.98-.44,1.57-.4,3.2.21,4.12,1.53.56.77.77,1.74.62,2.69Z"/></svg>