<?xml version="1.0" encoding="UTF-8"?><svg id="a" xmlns="http://www.w3.org/2000/svg" viewBox="0 0 24 24"><defs><style>.b{fill:#1e2939;}</style></defs><path class="b" d="m2.03,1c-.57,0-1.03.46-1.03,1.03v19.94c0,.57.46,1.03,1.03,1.03h19.94c.57,0,1.03-.46,1.03-1.03V2.03c0-.57-.46-1.03-1.03-1.03H2.03Zm15.92,8.94c.56,0,1.06.03,1.49.1.41.06.81.17,1.2.31v2.25c-.19-.13-.38-.24-.59-.33-.21-.1-.43-.18-.66-.24-.43-.12-.87-.18-1.31-.18-.27,0-.53.03-.75.08-.2.04-.39.12-.57.22-.16.1-.27.21-.36.34-.09.13-.13.29-.13.45,0,.18.05.34.14.48.1.14.23.28.41.41s.39.25.64.38c.25.12.53.25.85.38.43.18.82.37,1.16.58.34.2.64.43.88.69.25.26.43.55.56.88.13.33.2.71.2,1.15,0,.6-.11,1.11-.34,1.52-.22.4-.54.74-.93.99-.42.26-.88.45-1.36.55-.52.11-1.07.17-1.64.17-.57,0-1.13-.05-1.69-.15-.48-.08-.95-.24-1.39-.45v-2.41c.83.71,1.88,1.09,2.97,1.1.31,0,.57-.03.8-.08.23-.05.42-.13.57-.23.15-.1.27-.21.34-.35.17-.32.15-.71-.07-1-.14-.18-.3-.34-.49-.46-.23-.16-.48-.29-.74-.41-.31-.14-.61-.27-.92-.4-.84-.35-1.47-.78-1.88-1.29-.41-.51-.62-1.12-.62-1.84,0-.56.11-1.05.34-1.45s.53-.74.92-1c.41-.27.87-.47,1.35-.58.53-.13,1.08-.19,1.62-.18h0Zm-13.85.17h8.77v1.99h-3.15v8.84h-2.49v-8.84h-3.13v-1.99Z"/></svg>